<svg xmlns="http://www.w3.org/2000/svg" xmlns:xlink="http://www.w3.org/1999/xlink" width="500" zoomAndPan="magnify" viewBox="0 0 375 374.999991" height="500" preserveAspectRatio="xMidYMid meet" version="1.0"><defs><clipPath id="id1"><path d="M 3.039062 3.445312 L 372.789062 3.445312 L 372.789062 373.195312 L 3.039062 373.195312 Z M 3.039062 3.445312 " clip-rule="nonzero"/></clipPath><clipPath id="id2"><path d="M 61.347656 52.804688 L 313.871094 52.804688 L 313.871094 322.054688 L 61.347656 322.054688 Z M 61.347656 52.804688 " clip-rule="nonzero"/></clipPath></defs><g clip-path="url(#id1)"><path fill="rgb(0%, 0%, 0%)" d="M 372.789062 188.320312 C 372.789062 191.347656 372.714844 194.371094 372.566406 197.390625 C 372.417969 200.414062 372.195312 203.429688 371.898438 206.441406 C 371.605469 209.453125 371.234375 212.453125 370.789062 215.449219 C 370.34375 218.441406 369.828125 221.421875 369.238281 224.386719 C 368.648438 227.355469 367.984375 230.308594 367.25 233.242188 C 366.515625 236.175781 365.707031 239.09375 364.828125 241.988281 C 363.953125 244.882812 363.003906 247.753906 361.984375 250.601562 C 360.964844 253.453125 359.875 256.273438 358.71875 259.070312 C 357.558594 261.863281 356.335938 264.628906 355.039062 267.363281 C 353.746094 270.101562 352.386719 272.800781 350.960938 275.46875 C 349.535156 278.140625 348.042969 280.769531 346.488281 283.367188 C 344.933594 285.960938 343.3125 288.515625 341.632812 291.03125 C 339.953125 293.546875 338.210938 296.019531 336.410156 298.449219 C 334.605469 300.882812 332.746094 303.265625 330.824219 305.605469 C 328.90625 307.941406 326.929688 310.234375 324.898438 312.476562 C 322.867188 314.71875 320.78125 316.90625 318.640625 319.046875 C 316.503906 321.1875 314.3125 323.273438 312.070312 325.304688 C 309.828125 327.335938 307.539062 329.3125 305.199219 331.230469 C 302.859375 333.152344 300.476562 335.011719 298.046875 336.8125 C 295.613281 338.617188 293.140625 340.359375 290.625 342.039062 C 288.109375 343.71875 285.554688 345.339844 282.960938 346.894531 C 280.363281 348.449219 277.734375 349.941406 275.066406 351.367188 C 272.398438 352.792969 269.695312 354.152344 266.960938 355.445312 C 264.226562 356.738281 261.460938 357.964844 258.664062 359.125 C 255.867188 360.28125 253.046875 361.371094 250.199219 362.390625 C 247.347656 363.40625 244.476562 364.355469 241.582031 365.234375 C 238.6875 366.113281 235.769531 366.921875 232.835938 367.65625 C 229.902344 368.390625 226.949219 369.054688 223.984375 369.644531 C 221.015625 370.234375 218.035156 370.75 215.042969 371.195312 C 212.050781 371.640625 209.046875 372.007812 206.035156 372.304688 C 203.027344 372.601562 200.007812 372.824219 196.988281 372.972656 C 193.964844 373.121094 190.941406 373.195312 187.914062 373.195312 C 184.890625 373.195312 181.867188 373.121094 178.84375 372.972656 C 175.820312 372.824219 172.804688 372.601562 169.792969 372.304688 C 166.785156 372.007812 163.78125 371.640625 160.789062 371.195312 C 157.796875 370.75 154.816406 370.234375 151.847656 369.644531 C 148.878906 369.054688 145.929688 368.390625 142.996094 367.65625 C 140.058594 366.921875 137.144531 366.113281 134.25 365.234375 C 131.355469 364.355469 128.480469 363.40625 125.632812 362.390625 C 122.785156 361.371094 119.960938 360.28125 117.167969 359.125 C 114.371094 357.964844 111.605469 356.738281 108.871094 355.445312 C 106.136719 354.152344 103.433594 352.792969 100.765625 351.367188 C 98.097656 349.941406 95.464844 348.449219 92.871094 346.894531 C 90.277344 345.339844 87.71875 343.71875 85.203125 342.039062 C 82.6875 340.359375 80.214844 338.617188 77.785156 336.8125 C 75.355469 335.011719 72.972656 333.152344 70.632812 331.230469 C 68.292969 329.3125 66.003906 327.335938 63.761719 325.304688 C 61.519531 323.273438 59.328125 321.1875 57.1875 319.046875 C 55.050781 316.90625 52.964844 314.71875 50.933594 312.476562 C 48.898438 310.234375 46.925781 307.941406 45.003906 305.605469 C 43.085938 303.265625 41.226562 300.882812 39.421875 298.449219 C 37.621094 296.019531 35.878906 293.546875 34.199219 291.03125 C 32.515625 288.515625 30.898438 285.960938 29.34375 283.367188 C 27.789062 280.769531 26.296875 278.140625 24.871094 275.46875 C 23.445312 272.800781 22.085938 270.101562 20.789062 267.363281 C 19.496094 264.628906 18.269531 261.863281 17.113281 259.070312 C 15.957031 256.273438 14.867188 253.453125 13.847656 250.601562 C 12.828125 247.753906 11.878906 244.882812 11 241.988281 C 10.121094 239.09375 9.316406 236.175781 8.582031 233.242188 C 7.847656 230.308594 7.183594 227.355469 6.59375 224.386719 C 6.003906 221.421875 5.484375 218.441406 5.042969 215.449219 C 4.597656 212.453125 4.226562 209.453125 3.929688 206.441406 C 3.632812 203.429688 3.410156 200.414062 3.261719 197.390625 C 3.113281 194.371094 3.039062 191.347656 3.039062 188.320312 C 3.039062 185.296875 3.113281 182.273438 3.261719 179.25 C 3.410156 176.226562 3.632812 173.210938 3.929688 170.199219 C 4.226562 167.1875 4.597656 164.1875 5.042969 161.195312 C 5.484375 158.203125 6.003906 155.222656 6.59375 152.253906 C 7.183594 149.285156 7.847656 146.335938 8.582031 143.398438 C 9.316406 140.464844 10.121094 137.550781 11 134.65625 C 11.878906 131.757812 12.828125 128.886719 13.847656 126.039062 C 14.867188 123.191406 15.957031 120.367188 17.113281 117.574219 C 18.269531 114.777344 19.496094 112.011719 20.789062 109.277344 C 22.085938 106.542969 23.445312 103.839844 24.871094 101.171875 C 26.296875 98.503906 27.789062 95.871094 29.34375 93.277344 C 30.898438 90.679688 32.515625 88.125 34.199219 85.609375 C 35.878906 83.09375 37.621094 80.621094 39.421875 78.191406 C 41.226562 75.761719 43.085938 73.375 45.003906 71.039062 C 46.925781 68.699219 48.898438 66.410156 50.933594 64.167969 C 52.964844 61.925781 55.050781 59.734375 57.1875 57.59375 C 59.328125 55.457031 61.519531 53.371094 63.761719 51.335938 C 66.003906 49.304688 68.292969 47.328125 70.632812 45.410156 C 72.972656 43.492188 75.355469 41.628906 77.785156 39.828125 C 80.214844 38.027344 82.6875 36.285156 85.203125 34.601562 C 87.71875 32.921875 90.277344 31.304688 92.871094 29.75 C 95.464844 28.191406 98.097656 26.703125 100.765625 25.277344 C 103.433594 23.847656 106.136719 22.488281 108.871094 21.195312 C 111.605469 19.902344 114.371094 18.675781 117.167969 17.519531 C 119.960938 16.359375 122.785156 15.273438 125.632812 14.253906 C 128.480469 13.234375 131.355469 12.285156 134.25 11.40625 C 137.144531 10.527344 140.058594 9.722656 142.996094 8.988281 C 145.929688 8.25 148.878906 7.589844 151.847656 7 C 154.816406 6.40625 157.796875 5.890625 160.789062 5.445312 C 163.78125 5.003906 166.785156 4.632812 169.792969 4.335938 C 172.804688 4.039062 175.820312 3.816406 178.84375 3.667969 C 181.867188 3.519531 184.890625 3.445312 187.914062 3.445312 C 190.941406 3.445312 193.964844 3.519531 196.988281 3.667969 C 200.007812 3.816406 203.027344 4.039062 206.035156 4.335938 C 209.046875 4.632812 212.050781 5.003906 215.042969 5.445312 C 218.035156 5.890625 221.015625 6.40625 223.984375 7 C 226.949219 7.589844 229.902344 8.25 232.835938 8.988281 C 235.769531 9.722656 238.6875 10.527344 241.582031 11.40625 C 244.476562 12.285156 247.347656 13.234375 250.199219 14.253906 C 253.046875 15.273438 255.867188 16.359375 258.664062 17.519531 C 261.460938 18.675781 264.226562 19.902344 266.960938 21.195312 C 269.695312 22.488281 272.398438 23.847656 275.066406 25.277344 C 277.734375 26.703125 280.363281 28.191406 282.960938 29.75 C 285.554688 31.304688 288.109375 32.921875 290.625 34.601562 C 293.140625 36.285156 295.613281 38.027344 298.046875 39.828125 C 300.476562 41.628906 302.859375 43.492188 305.199219 45.410156 C 307.539062 47.328125 309.828125 49.304688 312.070312 51.335938 C 314.3125 53.371094 316.503906 55.457031 318.640625 57.59375 C 320.78125 59.734375 322.867188 61.925781 324.898438 64.167969 C 326.929688 66.410156 328.90625 68.699219 330.824219 71.039062 C 332.746094 73.375 334.605469 75.761719 336.410156 78.191406 C 338.210938 80.621094 339.953125 83.09375 341.632812 85.609375 C 343.3125 88.125 344.933594 90.679688 346.488281 93.277344 C 348.042969 95.871094 349.535156 98.503906 350.960938 101.171875 C 352.386719 103.839844 353.746094 106.542969 355.039062 109.277344 C 356.335938 112.011719 357.558594 114.777344 358.71875 117.574219 C 359.875 120.367188 360.964844 123.191406 361.984375 126.039062 C 363.003906 128.886719 363.953125 131.757812 364.828125 134.65625 C 365.707031 137.550781 366.515625 140.464844 367.25 143.398438 C 367.984375 146.335938 368.648438 149.285156 369.238281 152.253906 C 369.828125 155.222656 370.34375 158.203125 370.789062 161.195312 C 371.234375 164.1875 371.605469 167.1875 371.898438 170.199219 C 372.195312 173.210938 372.417969 176.226562 372.566406 179.25 C 372.714844 182.273438 372.789062 185.296875 372.789062 188.320312 Z M 372.789062 188.320312 " fill-opacity="1" fill-rule="nonzero"/></g><g clip-path="url(#id2)"><path fill="rgb(100%, 100%, 100%)" d="M 190.078125 52.804688 C 223.546875 52.804688 252.542969 65.496094 277.070312 90.878906 C 301.601562 116.261719 313.867188 147.945312 313.867188 185.921875 C 313.867188 225.042969 301.507812 257.519531 276.785156 283.339844 C 252.066406 309.167969 222.152344 322.082031 187.035156 322.082031 C 151.542969 322.082031 121.71875 309.488281 97.570312 284.292969 C 73.421875 259.101562 61.347656 226.5 61.347656 186.492188 C 61.347656 145.601562 75.292969 112.242188 103.179688 86.414062 C 127.390625 64.007812 156.359375 52.804688 190.078125 52.804688 Z M 186.464844 66.664062 C 163.394531 66.664062 144.886719 75.210938 130.941406 92.300781 C 113.574219 113.570312 104.890625 144.714844 104.890625 185.734375 C 104.890625 227.765625 113.890625 260.113281 131.894531 282.773438 C 145.710938 299.992188 163.964844 308.597656 186.65625 308.597656 C 210.867188 308.597656 230.867188 299.167969 246.648438 280.304688 C 262.429688 261.441406 270.320312 231.691406 270.320312 191.050781 C 270.320312 146.992188 261.640625 114.140625 244.269531 92.492188 C 230.328125 75.273438 211.058594 66.664062 186.464844 66.664062 Z M 237.285156 132.277344 L 244.320312 132.277344 L 244.320312 242.609375 L 237.285156 242.609375 L 237.285156 233.496094 C 237.285156 222.859375 234.175781 215.136719 227.964844 210.324219 C 223.910156 207.289062 214.148438 205.769531 198.683594 205.769531 L 176.53125 205.769531 C 163.472656 205.769531 154.855469 206.59375 150.667969 208.238281 C 147.5 209.503906 144.773438 212.097656 142.492188 216.023438 C 139.449219 221.59375 137.929688 227.417969 137.929688 233.496094 L 137.929688 242.609375 L 130.894531 242.609375 L 130.894531 132.277344 L 137.929688 132.277344 L 137.929688 141.582031 C 137.929688 152.089844 141.035156 159.746094 147.25 164.558594 C 151.304688 167.726562 161.066406 169.308594 176.53125 169.308594 L 198.683594 169.308594 C 211.742188 169.308594 220.359375 168.484375 224.542969 166.839844 C 227.710938 165.570312 230.441406 162.914062 232.71875 158.863281 C 235.761719 153.417969 237.285156 147.660156 237.285156 141.582031 L 237.285156 132.277344 " fill-opacity="1" fill-rule="nonzero"/></g></svg>