<svg xmlns="http://www.w3.org/2000/svg" xmlns:xlink="http://www.w3.org/1999/xlink" width="500" zoomAndPan="magnify" viewBox="0 0 375 374.999991" height="500" preserveAspectRatio="xMidYMid meet" version="1.0"><defs><clipPath id="id1"><path d="M 7.957031 8.664062 L 367.207031 8.664062 L 367.207031 367.914062 L 7.957031 367.914062 Z M 7.957031 8.664062 " clip-rule="nonzero"/></clipPath><clipPath id="id2"><path d="M 83.605469 77.273438 L 291.160156 77.273438 L 291.160156 299.273438 L 83.605469 299.273438 Z M 83.605469 77.273438 " clip-rule="nonzero"/></clipPath></defs><g clip-path="url(#id1)"><path fill="rgb(0%, 0%, 0%)" d="M 7.957031 298.125 L 7.957031 78.457031 C 7.957031 39.910156 39.199219 8.664062 77.746094 8.664062 L 297.414062 8.664062 C 335.960938 8.664062 367.207031 39.910156 367.207031 78.457031 L 367.207031 298.125 C 367.207031 336.671875 335.960938 367.914062 297.414062 367.914062 L 77.746094 367.914062 C 39.199219 367.914062 7.957031 336.671875 7.957031 298.125 Z M 7.957031 298.125 " fill-opacity="1" fill-rule="nonzero"/></g><g clip-path="url(#id2)"><path fill="rgb(100%, 100%, 100%)" d="M 189.414062 77.273438 C 216.921875 77.273438 240.757812 87.738281 260.914062 108.667969 C 281.078125 129.597656 291.160156 155.71875 291.160156 187.03125 C 291.160156 219.289062 281 246.0625 260.679688 267.355469 C 240.363281 288.648438 215.773438 299.296875 186.910156 299.296875 C 157.738281 299.296875 133.226562 288.914062 113.378906 268.140625 C 93.527344 247.367188 83.605469 220.488281 83.605469 187.503906 C 83.605469 153.785156 95.066406 126.28125 117.988281 104.988281 C 137.886719 86.511719 161.699219 77.273438 189.414062 77.273438 Z M 186.441406 88.703125 C 167.480469 88.703125 152.269531 95.75 140.808594 109.839844 C 126.53125 127.378906 119.394531 153.054688 119.394531 186.875 C 119.394531 221.53125 126.792969 248.203125 141.589844 266.886719 C 152.945312 281.082031 167.949219 288.179688 186.597656 288.179688 C 206.5 288.179688 222.9375 280.40625 235.910156 264.851562 C 248.882812 249.296875 255.367188 224.769531 255.367188 191.261719 C 255.367188 154.933594 248.230469 127.847656 233.957031 110 C 222.496094 95.800781 206.65625 88.703125 186.441406 88.703125 Z M 228.214844 142.800781 L 233.996094 142.800781 L 233.996094 233.769531 L 228.214844 233.769531 L 228.214844 226.257812 C 228.214844 217.488281 225.660156 211.121094 220.554688 207.152344 C 217.222656 204.648438 209.195312 203.398438 196.484375 203.398438 L 178.277344 203.398438 C 167.542969 203.398438 160.460938 204.074219 157.019531 205.429688 C 154.417969 206.476562 152.175781 208.613281 150.300781 211.851562 C 147.800781 216.445312 146.550781 221.246094 146.550781 226.257812 L 146.550781 233.769531 L 140.765625 233.769531 L 140.765625 142.800781 L 146.550781 142.800781 L 146.550781 150.472656 C 146.550781 159.136719 149.101562 165.453125 154.210938 169.417969 C 157.542969 172.03125 165.566406 173.332031 178.277344 173.332031 L 196.484375 173.332031 C 207.21875 173.332031 214.300781 172.65625 217.742188 171.300781 C 220.34375 170.253906 222.585938 168.0625 224.460938 164.722656 C 226.960938 160.230469 228.214844 155.484375 228.214844 150.472656 L 228.214844 142.800781 " fill-opacity="1" fill-rule="nonzero"/></g></svg>